# xmcd CD database file
#
# Track frame offsets:
#	150
#	10205
#	20622
#	29145
#	44961
#	55427
#	66325
#	76199
#	86435
#	98085
#	109638
#	120041
#	131615
#	141656
#	153411
#	165688
#	183921
#	200190
#	213150
#	225211
#	237133
#	250455
#	263512
#
# Disc length: 3643 seconds
#
# Revision: 0
# Processed by: cddbd v1.5.2PL0 Copyright (c) Steve Scherf et al.
# Submitted via: CDex 1.70beta2
#
DISCID=3d0e3917
DTITLE=Robbins Marty - RFD/My Kind Of Country
DYEAR=2016
DGENRE=Country
TTITLE0=Melba From Melbourne
TTITLE1=Change That Dial
TTITLE2=Only A Picture Stops Time
TTITLE3=Southern Dixie Flyer
TTITLE4=Everybody's Darlin Plus Mine
TTITLE5=She Means Nothing To Me Now
TTITLE6=Making Excuses
TTITLE7=Rainbow
TTITLE8=I Lived A Lifetime In A Day
TTITLE9=You Won't Have Her Long
TTITLE10=The Things That I Don't Know
TTITLE11=Urgently Needed
TTITLE12=I'll Have To Make Some Changes
TTITLE13=Nine-Tenths Of The Law
TTITLE14=Sorting Memories
TTITLE15=Hello Heartache
TTITLE16=One Window, Four Walls
TTITLE17=Working My Way Through A Heartache
TTITLE18=Would You Take Me Back Again
TTITLE19=Do Me A Favour
TTITLE20=Sixteen Weeks
TTITLE21=Seconds To Remember
TTITLE22=Another Lost Weekend
EXTD=YEAR: 2016
EXTT0=
EXTT1=
EXTT2=
EXTT3=
EXTT4=
EXTT5=
EXTT6=
EXTT7=
EXTT8=
EXTT9=
EXTT10=
EXTT11=
EXTT12=
EXTT13=
EXTT14=
EXTT15=
EXTT16=
EXTT17=
EXTT18=
EXTT19=
EXTT20=
EXTT21=
EXTT22=
PLAYORDER=
